<svg xmlns="http://www.w3.org/2000/svg" viewBox="0 0 100 100">
  <defs>
    <linearGradient id="cloudGradient" x1="0%" y1="0%" x2="100%" y2="100%">
      <stop offset="0%" style="stop-color:#60A5FA;stop-opacity:1" />
      <stop offset="100%" style="stop-color:#93C5FD;stop-opacity:1" />
    </linearGradient>
  </defs>
  <!-- Cloud with ascending arrows - transparent background -->
  <path d="M 20 55 Q 15 55 12 52 Q 8 48 8 42 Q 8 38 10 35 Q 13 30 18 28 Q 18 22 22 17 Q 28 10 37 10 Q 44 10 49 14 Q 52 10 58 10 Q 65 10 70 15 Q 75 20 75 28 Q 80 30 83 35 Q 86 40 86 46 Q 86 52 82 56 Q 78 60 72 60 L 20 60 Z" 
        fill="url(#cloudGradient)" 
        stroke="none"/>
  <!-- Three ascending arrows inside cloud -->
  <path d="M 32 50 L 28 54 L 32 54 L 32 58 L 36 58 L 36 54 L 40 54 L 36 50 Z" fill="#22D3EE"/>
  <path d="M 46 44 L 42 48 L 46 48 L 46 56 L 50 56 L 50 48 L 54 48 L 50 44 Z" fill="#22D3EE"/>
  <path d="M 60 38 L 56 42 L 60 42 L 60 54 L 64 54 L 64 42 L 68 42 L 64 38 Z" fill="#22D3EE"/>
</svg>
